# AST/ASF file generated using VICON BodyLanguage
# -----------------------------------------------
:version 1.10
:name VICON
:units
  mass 1.0
  length 0.45
  angle deg
:documentation
   .ast/.asf automatically generated from VICON data using
   VICON BodyBuilder and BodyLanguage model FoxedUp or BRILLIANT.MOD
:root
   order TX TY TZ RX RY RZ
   axis XYZ
   position 0 0 0  
   orientation 0 0 0 
:bonedata
  begin
     id 1 
     name lhipjoint
     direction 0.521689 -0.742065 0.420928 
     length 2.47002 
     axis 0 0 0  XYZ
  end
  begin
     id 2 
     name lfemur
     direction 0.34202 -0.939693 0  
     length 7.24654  
     axis 0 0 20  XYZ
    dof rx ry rz
    limits (-160.0 20.0)
           (-70.0 70.0)
           (-60.0 70.0)
  end
  begin
     id 3 
     name ltibia
     direction 0.34202 -0.939693 0   
     length 8.04849   
     axis 0 0 20   XYZ
    dof rx
    limits (-10.0 170.0)
  end
  begin
     id 4 
     name lfoot
     direction 0.0745411 -0.2048 0.975961   
     length 1.72367   
     axis -90 7.62852e-016 20   XYZ
    dof rx rz
    limits (-45.0 90.0)
           (-70.0 20.0)
  end
  begin
     id 5 
     name ltoes
     direction 1.53556e-011 -4.21901e-011 1   
     length 0.87311   
     axis -90 7.62852e-016 20   XYZ
    dof rx
    limits (-90.0 20.0)
  end
  begin
     id 6 
     name rhipjoint
     direction -0.52849 -0.738415 0.418857   
     length 2.48223  
     axis 0 0 0  XYZ 
  end
  begin
     id 7 
     name rfemur
     direction -0.34202 -0.939693 0   
     length 7.15571   
     axis 0 0 -20   XYZ
    dof rx ry rz
    limits (-160.0 20.0)
           (-70.0 70.0)
           (-70.0 60.0)
  end
  begin
     id 8 
     name rtibia
     direction -0.34202 -0.939693 0   
     length 7.81659   
     axis 0 0 -20   XYZ
    dof rx
    limits (-10.0 170.0)
 end
 begin
     id 9 
     name rfoot
     direction -0.0917348 -0.252039 0.963359   
     length 1.84382  
     axis -90 -7.62852e-016 -20   XYZ
    dof rx rz
    limits (-45.0 90.0)
           (-20.0 70.0)
  end
  begin
     id 10 
     name rtoes
     direction -1.53551e-011 -4.21879e-011 1   
     length 0.927771   
     axis -90 -7.62852e-016 -20   XYZ
    dof rx
    limits (-90.0 20.0)
  end
  begin
     id 11 
     name lowerback
     direction 0.00583058 0.999822 0.0179296   
     length 2.1429   
     axis 0 0 0   XYZ
    dof rx ry rz
    limits (-20.0 45.0)
           (-30.0 30.0)
           (-30.0 30.0)
  end
  begin
     id 12 
     name upperback
     direction -0.0137999 0.999752 -0.0175071   
     length 2.14252   
     axis 0 0 0   XYZ
    dof rx ry rz
    limits (-20.0 45.0)
           (-30.0 30.0)
           (-30.0 30.0)
  end
  begin
     id 13 
     name thorax
     direction -0.0158036 0.99955 -0.0254909   
     length 2.1383   
     axis 0 0 0   XYZ
    dof rx ry rz
    limits (-20.0 45.0)
           (-30.0 30.0)
           (-30.0 30.0)
  end
  begin
     id 14 
     name lowerneck
     direction -0.0101179 0.999403 -0.0330262   
     length 1.65808   
     axis 0 0 0   XYZ
    dof rx ry rz
    limits (-20.0 45.0)
           (-30.0 30.0)
           (-30.0 30.0)
  end
  begin
     id 15 
     name upperneck
     direction 0.0497734 0.995978 -0.074501   
     length 1.5897   
     axis 0 0 0   XYZ
    dof rx ry rz
    limits (-20.0 45.0)
           (-30.0 30.0)
           (-30.0 30.0)
  end
  begin
     id 16
     name head
     direction 0.0189524 0.999519 -0.0245438  
     length 1.74024  
     axis 0 0 0   XYZ
    dof rx ry rz
    limits (-20.0 45.0)
           (-30.0 30.0)
           (-30.0 30.0)
  end
  begin
     id 17 
     name lclavicle
     direction 0.945604 0.324422 0.0241537  
     length 3.59089  
     axis 0 0 0   XYZ
    dof ry rz
    limits (-20.0 10.0)
           (0.0 20.0)
  end
  begin
     id 18 
     name lhumerus
     direction 1 -4.48964e-011 -2.63524e-027   
     length 5.2391   
     axis 180 -30 -90   XYZ
    dof rx ry rz
    limits (-60.0 90.0)
           (-90.0 90.0)
           (-90.0 90.0)
  end
  begin
     id 19
     name lradius
     direction 1 -4.48969e-011 3.86978e-028   
     length 3.31467   
     axis 180 -30 -90   XYZ
    dof rx
    limits (-10.0 170.0)
  end
  begin
     id 20
     name lwrist
     direction 1 -4.48963e-011 7.20928e-028   
     length 1.65734   
     axis -5.52449e-016 90 90   XYZ
    dof ry
    limits (-180.0 0.0)
 end
  begin
     id 21 
     name lhand
     direction 1 -4.48964e-011 1.44186e-027   
     length 0.9659   
     axis -9.20027e-016 90 90   XYZ
    dof rx rz
    limits (-90.0 90.0)
           (-45.0 45.0)
  end
  begin
     id 22 
     name lfingers
     direction 1 -4.48965e-011 2.88371e-027   
     length 0.778733   
     axis -1.84005e-015 90 90   XYZ
    dof rx
    limits (0.0 90.0)
  end
  begin
     id 23
     name lthumb
     direction 0.707107 -6.34931e-011 0.707107   
     length 1.11811   
     axis -90 45 2.85299e-015   XYZ
    dof rx rz
    limits (-45.0 45.0)
           (-45.0 45.0)
  end
  begin
     id 24 
     name rclavicle
     direction -0.923762 0.370785 0.0958234   
     length 3.54196  
     axis 0 0 0   XYZ 
    dof ry rz
    limits (-10.0 20.0)
           (-20.0 0.0)
  end
  begin
     id 25 
     name rhumerus
     direction -1 -4.48966e-011 1.18702e-017  
     length 5.30252   
     axis 180 30 90   XYZ
    dof rx ry rz
    limits (-90.0 60.0)
           (-90.0 90.0)
           (-90.0 90.0)
  end
  begin
     id 26 
     name rradius
     direction -1 -4.48966e-011 4.46736e-027   
     length 3.67875   
     axis 180 30 90   XYZ
    dof rx
    limits (-10.0 170.0)
  end
  begin
     id 27 
     name rwrist
     direction -1 -4.48966e-011 7.20928e-028   
     length 1.83937   
     axis -5.52449e-016 -90 -90   XYZ
    dof ry
    limits (-180.0 0.0)
  end
  begin
     id 28
     name rhand
     direction -1 -4.48973e-011 1.44186e-027   
     length 0.594811   
     axis -9.20027e-016 -90 -90   XYZ
    dof rx rz
    limits (-90.0 90.0)
           (-45.0 45.0)
  end
  begin
     id 29
     name rfingers
     direction -1 -4.48963e-011 2.88371e-027   
     length 0.479552   
     axis -1.84005e-015 -90 -90   XYZ
    dof rx
    limits (0.0 90.0)
  end
  begin
     id 30
     name rthumb
     direction -0.707107 -6.34932e-011 0.707107   
     length 0.688544   
     axis -90 -45 -2.85299e-015   XYZ
    dof rx rz
    limits (-45.0 45.0)
           (-45.0 45.0)
  end
:hierarchy
  begin
    root lhipjoint rhipjoint lowerback
    lhipjoint lfemur
    lfemur ltibia
    ltibia lfoot
    lfoot ltoes
    rhipjoint rfemur
    rfemur rtibia
    rtibia rfoot
    rfoot rtoes
    lowerback upperback
    upperback thorax
    thorax lowerneck lclavicle rclavicle
    lowerneck upperneck
    upperneck head
    lclavicle lhumerus
    lhumerus lradius
    lradius lwrist
    lwrist lhand lthumb
    lhand lfingers
    rclavicle rhumerus
    rhumerus rradius
    rradius rwrist
    rwrist rhand rthumb
    rhand rfingers
  end

#!OML:ASF E:\acrobat2\Project_11_07_03\Capture day 1\Session 1\Acrobat.ASF
:FULLY-SPECIFIED
:DEGREES
673
root 10.063 27.7764 -8.60738 7.33966 4.92395 -4.25017
lowerback 7.1163 -0.725825 -1.97064
upperback 2.26697 -1.11343 -0.746215
thorax -1.62693 -0.553057 0.431342
lowerneck -3.39042 -1.20368 0.246377
upperneck 13.5587 -2.25755 4.75325
head 4.67024 -0.82465 1.31023
rclavicle 7.55382e-015 -1.19271e-014
rhumerus -40.4872 -0.0900235 -87.2899
rradius 39.218
rwrist 2.05316
rhand -7.94787 -17.6284
rfingers 7.12502
rthumb 17.959 -46.8192
lclavicle 7.55382e-015 -1.19271e-014
lhumerus -17.0995 -14.5282 74.8309
lradius 35.1101
lwrist 6.83513
lhand -17.0126 -12.6515
lfingers 7.12502
lthumb 9.22314 17.1268
rfemur -25.2549 -10.8818 23.5869
rtibia 41.7956
rfoot -11.071 -5.2129
rtoes -8.07061
lfemur -24.7257 -1.37686 -11.8164
ltibia 34.0564
lfoot -10.8626 -6.87047
ltoes 21.231
674
root 10.0616 27.7901 -8.52256 7.37973 5.2632 -4.0307
lowerback 6.94133 -0.758693 -2.10909
upperback 2.23078 -1.16284 -0.771282
thorax -1.56364 -0.578032 0.484757
lowerneck -3.25775 -1.26164 0.240226
upperneck 13.606 -2.31613 4.61328
head 4.66214 -0.862231 1.266
rclavicle -1.35174e-014 -1.90833e-014
rhumerus -40.4659 0.0951717 -87.2179
rradius 38.7058
rwrist 2.8175
rhand -7.63176 -17.7318
rfingers 7.12502
rthumb 18.2631 -46.8945
lclavicle -1.35174e-014 -1.90833e-014
lhumerus -17.0488 -13.7738 75.1862
lradius 35.0036
lwrist 6.8713
lhand -17.3419 -12.2563
lfingers 7.12502
lthumb 8.90544 17.5357
rfemur -24.2874 -10.5626 23.3408
rtibia 40.9659
rfoot -11.3311 -5.15373
rtoes -10.4428
lfemur -24.9024 -1.59569 -11.7121
ltibia 33.6488
lfoot -9.73893 -6.30438
ltoes 21.7671
675
root 10.0589 27.8047 -8.43649 7.43178 5.65538 -3.82385
lowerback 6.75617 -0.797072 -2.21139
upperback 2.19244 -1.21627 -0.789576
thorax -1.4972 -0.605066 0.524787
lowerneck -3.13939 -1.32703 0.207376
upperneck 13.6609 -2.39148 4.53723
head 4.6601 -0.905315 1.24502
rclavicle 5.36719e-015 1.19271e-014
rhumerus -40.472 0.197882 -87.115
rradius 38.2172
rwrist 3.6301
rhand -7.25643 -18.0027
rfingers 7.12502
rthumb 18.6242 -47.1312
lclavicle 5.36719e-015 1.19271e-014
lhumerus -17.0472 -13.1286 75.5605
lradius 34.9667
lwrist 7.00863
lhand -17.5676 -11.8944
lfingers 7.12502
lthumb 8.68764 17.9069
rfemur -23.2481 -10.1904 23.1692
rtibia 39.8655
rfoot -11.8041 -5.04794
rtoes -13.5705
lfemur -25.0544 -1.84132 -11.5664
ltibia 33.1569
lfoot -8.56244 -5.71799
ltoes 22.2511
676
root 10.0559 27.8198 -8.3491 7.48322 6.06806 -3.64025
lowerback 6.56493 -0.832563 -2.26348
upperback 2.15863 -1.26185 -0.799901
thorax -1.42368 -0.628308 0.543869
lowerneck -3.03426 -1.41575 0.138997
upperneck 13.7147 -2.5059 4.53868
head 4.66215 -0.964735 1.25182
rclavicle 6.36111e-015 -7.95139e-015
rhumerus -40.5113 0.23973 -86.9816
rradius 37.776
rwrist 4.42415
rhand -6.8772 -18.2933
rfingers 7.12502
rthumb 18.9889 -47.3864
lclavicle 6.36111e-015 -7.95139e-015
lhumerus -17.0759 -12.6208 75.9498
lradius 34.9734
lwrist 7.24993
lhand -17.697 -11.5975
lfingers 7.12502
lthumb 8.56279 18.2089
rfemur -22.1537 -9.77503 23.0813
rtibia 38.5229
rfoot -12.4977 -4.94627
rtoes -17.0449
lfemur -25.1452 -2.09337 -11.3729
ltibia 32.558
lfoot -7.36154 -5.1101
ltoes 22.582
677
root 10.0536 27.8347 -8.26084 7.53097 6.46822 -3.4795
lowerback 6.36714 -0.857356 -2.27126
upperback 2.13491 -1.28965 -0.796591
thorax -1.3372 -0.642906 0.550377
lowerneck -2.93404 -1.51953 0.0223769
upperneck 13.7559 -2.6458 4.61042
head 4.66322 -1.03524 1.28702
rclavicle -1.55052e-014 -2.70347e-014
rhumerus -40.5766 0.235708 -86.8037
rradius 37.3918
rwrist 5.14941
rhand -6.45393 -18.6776
rfingers 7.12502
rthumb 19.3959 -47.7302
lclavicle -1.55052e-014 -2.70347e-014
lhumerus -17.1236 -12.2381 76.3637
lradius 35.0102
lwrist 7.57844
lhand -17.7794 -11.4073
lfingers 7.12502
lthumb 8.48318 18.4023
rfemur -21.0324 -9.33037 23.0719
rtibia 36.9632
rfoot -13.3666 -4.87155
rtoes -20.2976
lfemur -25.1695 -2.33245 -11.139
ltibia 31.8598
lfoot -6.17305 -4.47984
ltoes 22.6438
678
root 10.0529 27.849 -8.17233 7.57342 6.83547 -3.34907
lowerback 6.16887 -0.868198 -2.21534
upperback 2.1214 -1.29472 -0.781004
thorax -1.24166 -0.646283 0.531956
lowerneck -2.87173 -1.62483 -0.155717
upperneck 13.8009 -2.79188 4.74179
head 4.6738 -1.1079 1.35019
rclavicle 3.77691e-015 -1.82882e-014
rhumerus -40.6575 0.163008 -86.5719
rradius 37.0223
rwrist 5.82407
rhand -6.03158 -19.0052
rfingers 7.12502
rthumb 19.802 -48.0165
lclavicle 3.77691e-015 -1.82882e-014
lhumerus -17.1845 -11.973 76.8
lradius 35.0699
lwrist 7.97158
lhand -17.8519 -11.3776
lfingers 7.12502
lthumb 8.41323 18.4348
rfemur -19.9134 -8.8836 23.1454
rtibia 35.22
rfoot -14.3082 -4.83105
rtoes -22.8329
lfemur -25.1337 -2.54471 -10.8632
ltibia 31.0866
lfoot -5.02678 -3.85282
ltoes 22.4891
679
root 10.0541 27.8624 -8.0848 7.61221 7.16087 -3.25678
lowerback 5.97808 -0.867275 -2.0733
upperback 2.11158 -1.27962 -0.758301
thorax -1.14877 -0.6394 0.471328
lowerneck -2.87096 -1.72502 -0.365029
upperneck 13.8683 -2.93068 4.87196
head 4.70228 -1.17734 1.41801
rclavicle -1.47101e-014 3.97569e-015
rhumerus -40.7481 0.00690468 -86.2873
rradius 36.6029
rwrist 6.52223
rhand -5.72463 -19.0295
rfingers 7.12502
rthumb 20.0971 -48.0101
lclavicle -1.47101e-014 3.97569e-015
lhumerus -17.2719 -11.8189 77.2461
lradius 35.1596
lwrist 8.38844
lhand -17.8691 -11.4907
lfingers 7.12502
lthumb 8.39668 18.3224
rfemur -18.8338 -8.47179 23.3062
rtibia 33.3466
rfoot -15.2046 -4.83571
rtoes -24.3732
lfemur -25.0523 -2.72376 -10.5431
ltibia 30.2651
lfoot -3.94516 -3.26379
ltoes 22.2938
680
root 10.0577 27.8743 -7.99937 7.64338 7.44797 -3.21104
lowerback 5.80794 -0.856573 -1.83264
upperback 2.10166 -1.2472 -0.728625
thorax -1.06978 -0.623439 0.361941
lowerneck -2.90408 -1.83924 -0.550429
upperneck 13.9432 -3.08068 4.92303
head 4.73818 -1.25493 1.45653
rclavicle -6.16232e-015 2.3059e-014
rhumerus -40.8342 -0.210302 -85.9707
rradius 36.1629
rwrist 7.13295
rhand -5.41999 -18.9945
rfingers 7.12502
rthumb 20.3898 -47.944
lclavicle -6.16232e-015 2.3059e-014
lhumerus -17.3982 -11.7744 77.6987
lradius 35.2867
lwrist 8.79508
lhand -17.7952 -11.6965
lfingers 7.12502
lthumb 8.46803 18.1137
rfemur -17.8218 -8.13767 23.5543
rtibia 31.4219
rfoot -15.9989 -4.89112
rtoes -24.9729
lfemur -24.9381 -2.87811 -10.176
ltibia 29.4282
lfoot -2.95093 -2.74396
ltoes 22.1316
681
root 10.0639 27.8844 -7.91655 7.65859 7.71873 -3.2063
lowerback 5.67274 -0.842631 -1.49655
upperback 2.09469 -1.20697 -0.69317
thorax -1.00896 -0.603046 0.205222
lowerneck -2.9169 -1.99045 -0.717704
upperneck 13.9892 -3.27234 4.91259
head 4.76223 -1.35635 1.471
rclavicle 4.96962e-015 2.94201e-014
rhumerus -40.9008 -0.458688 -85.6378
rradius 35.6554
rwrist 7.66796
rhand -5.27728 -18.7365
rfingers 7.12502
rthumb 20.527 -47.6713
lclavicle 4.96962e-015 2.94201e-014
lhumerus -17.5556 -11.8383 78.1571
lradius 35.4508
lwrist 9.1802
lhand -17.6132 -11.9328
lfingers 7.12502
lthumb 8.64366 17.8702
rfemur -16.8945 -7.9307 23.8723
rtibia 29.5433
rfoot -16.6833 -5.00097
rtoes -24.9105
lfemur -24.7939 -3.03573 -9.77788
ltibia 28.5993
lfoot -2.06065 -2.343
ltoes 21.9575
682
root 10.0722 27.8925 -7.83675 7.66151 7.97616 -3.20333
lowerback 5.57 -0.824465 -1.11795
upperback 2.09603 -1.16038 -0.658493
thorax -0.958111 -0.579123 0.0240455
lowerneck -2.95006 -2.15423 -0.845394
upperneck 14.0279 -3.4714 4.80913
head 4.78599 -1.46457 1.44946
rclavicle -2.52457e-014 -4.77083e-015
rhumerus -40.9313 -0.690199 -85.3109
rradius 35.0823
rwrist 8.07598
rhand -5.35051 -18.3318
rfingers 7.12502
rthumb 20.4566 -47.2742
lclavicle -2.52457e-014 -4.77083e-015
lhumerus -17.734 -12.0014 78.6231
lradius 35.6514
lwrist 9.52418
lhand -17.3083 -12.1492
lfingers 7.12502
lthumb 8.93783 17.6415
rfemur -16.083 -7.86289 24.2077
rtibia 27.8182
rfoot -17.2772 -5.17197
rtoes -24.4087
lfemur -24.6273 -3.20977 -9.40039
ltibia 27.7977
lfoot -1.29068 -2.11809
ltoes 21.9802
683
root 10.0822 27.8986 -7.7597 7.66187 8.20697 -3.15949
lowerback 5.48645 -0.797924 -0.76087
upperback 2.1085 -1.10489 -0.632852
thorax -0.905674 -0.550606 -0.154618
lowerneck -2.96896 -2.3083 -0.94342
upperneck 14.0437 -3.64925 4.63832
head 4.79808 -1.5654 1.40337
rclavicle -2.10712e-014 -9.54166e-015
rhumerus -40.9098 -0.879303 -85.0014
rradius 34.4654
rwrist 8.27916
rhand -5.54834 -17.9234
rfingers 7.12502
rthumb 20.2665 -46.8861
lclavicle -2.10712e-014 -9.54166e-015
lhumerus -17.9363 -12.2541 79.0966
lradius 35.8892
lwrist 9.80255
lhand -16.8865 -12.3328
lfingers 7.12502
lthumb 9.34484 17.4401
rfemur -15.412 -7.90694 24.5068
rtibia 26.3202
rfoot -17.8045 -5.42368
rtoes -23.6658
lfemur -24.4492 -3.38469 -9.09951
ltibia 27.0415
lfoot -0.659248 -2.10306
ltoes 22.4144
684
root 10.0928 27.9027 -7.68505 7.66832 8.39999 -3.0533
lowerback 5.4138 -0.766586 -0.469764
upperback 2.13041 -1.04721 -0.617486
thorax -0.847898 -0.520981 -0.306812
lowerneck -2.9956 -2.43601 -1.02792
upperneck 14.0533 -3.78673 4.42707
head 4.80727 -1.64816 1.34452
rclavicle 1.25234e-014 -3.4191e-014
rhumerus -40.8411 -0.993561 -84.7181
rradius 33.8272
rwrist 8.25875
rhand -5.8198 -17.549
rfingers 7.12502
rthumb 20.0056 -46.5392
lclavicle 1.25234e-014 -3.4191e-014
lhumerus -18.1742 -12.5615 79.5703
lradius 36.1625
lwrist 9.9864
lhand -16.3389 -12.4839
lfingers 7.12502
lthumb 9.87323 17.2646
rfemur -14.8867 -8.00367 24.741
rtibia 25.0576
rfoot -18.268 -5.78876
rtoes -22.8479
lfemur -24.272 -3.52959 -8.90459
ltibia 26.3373
lfoot -0.182959 -2.29346
ltoes 23.1746
685
root 10.1033 27.9049 -7.61304 7.6889 8.54482 -2.86244
lowerback 5.35647 -0.733975 -0.288045
upperback 2.15496 -0.994035 -0.614359
thorax -0.793731 -0.493777 -0.409679
lowerneck -3.04943 -2.50407 -1.12165
upperneck 14.078 -3.84284 4.21174
head 4.82328 -1.6913 1.28976
rclavicle -1.47101e-014 -1.43125e-014
rhumerus -40.7355 -1.00779 -84.4694
rradius 33.2007
rwrist 7.99855
rhand -6.08546 -17.3198
rfingers 7.12502
rthumb 19.7502 -46.3364
lclavicle -1.47101e-014 -1.43125e-014
lhumerus -18.4615 -12.8903 80.0369
lradius 36.471
lwrist 10.0566
lhand -15.6791 -12.6428
lfingers 7.12502
lthumb 10.5097 17.0744
rfemur -14.4985 -8.09303 24.8787
rtibia 24.0059
rfoot -18.6675 -6.26988
rtoes -22.0207
lfemur -24.1088 -3.61779 -8.84406
ltibia 25.6867
lfoot 0.129572 -2.64867
ltoes 24.0539
686
root 10.1131 27.9058 -7.5436 7.72401 8.63953 -2.57443
lowerback 5.33577 -0.700834 -0.225713
upperback 2.16944 -0.946865 -0.63751
thorax -0.768498 -0.469864 -0.471558
lowerneck -3.1254 -2.50836 -1.22476
upperneck 14.1288 -3.81768 4.03299
head 4.84954 -1.69255 1.25173
rclavicle 1.68967e-014 4.77083e-015
rhumerus -40.6207 -0.953233 -84.2616
rradius 32.6318
rwrist 7.51849
rhand -6.21902 -17.3444
rfingers 7.12502
rthumb 19.6218 -46.3742
lclavicle 1.68967e-014 4.77083e-015
lhumerus -18.8061 -13.2409 80.4799
lradius 36.8113
lwrist 10.0254
lhand -14.9333 -12.8688
lfingers 7.12502
lthumb 11.2291 16.8107
rfemur -14.2205 -8.13114 24.8996
rtibia 23.1278
rfoot -19.0037 -6.86058
rtoes -21.2053
lfemur -23.9625 -3.62365 -8.93697
ltibia 25.0887
lfoot 0.296466 -3.12241
ltoes 24.8411
687
root 10.1215 27.906 -7.47642 7.76458 8.67606 -2.21191
lowerback 5.36607 -0.661427 -0.252175
upperback 2.16971 -0.896571 -0.694102
thorax -0.785228 -0.444637 -0.517368
lowerneck -3.18079 -2.47603 -1.33101
upperneck 14.1829 -3.75218 3.92571
head 4.87358 -1.67047 1.23872
rclavicle 3.97569e-016 0
rhumerus -40.5172 -0.899991 -84.0769
rradius 32.0976
rwrist 7.00971
rhand -6.29189 -17.4043
rfingers 7.12502
rthumb 19.5517 -46.4412
lclavicle 3.97569e-016 0
lhumerus -19.1938 -13.6191 80.8769
lradius 37.1769
lwrist 9.90784
lhand -14.0887 -13.1728
lfingers 7.12502
lthumb 12.0436 16.4606
rfemur -14.0212 -8.05411 24.8228
rtibia 22.3833
rfoot -19.2838 -7.56616
rtoes -20.3428
lfemur -23.8239 -3.51379 -9.15455
ltibia 24.5408
lfoot 0.344054 -3.67574
ltoes 25.4325
